/* XPM */
static char * tpk_sprite_barrel_warn2_xpm[] = {
"28 34 455 2",
"  	c #FF00FF",
". 	c #1E201F",
"+ 	c #424D4F",
"@ 	c #495659",
"# 	c #526468",
"$ 	c #54676B",
"% 	c #53676B",
"& 	c #4A585B",
"* 	c #506165",
"= 	c #485658",
"- 	c #465355",
"; 	c #455053",
"> 	c #3E4647",
", 	c #434E50",
"' 	c #3D4445",
") 	c #373C3E",
"! 	c #1C1D1D",
"~ 	c #222424",
"{ 	c #33393A",
"] 	c #3C4547",
"^ 	c #393F40",
"/ 	c #323636",
"( 	c #343A3A",
"_ 	c #353B3B",
": 	c #353B3A",
"< 	c #353C3B",
"[ 	c #2D3233",
"} 	c #303434",
"| 	c #2A2D2D",
"1 	c #282C2C",
"2 	c #282B2B",
"3 	c #252827",
"4 	c #232626",
"5 	c #242626",
"6 	c #242625",
"7 	c #363B3C",
"8 	c #333839",
"9 	c #252826",
"0 	c #161612",
"a 	c #1F201E",
"b 	c #232525",
"c 	c #2A2E2E",
"d 	c #202222",
"e 	c #0E0E0D",
"f 	c #131312",
"g 	c #0C0C0B",
"h 	c #151513",
"i 	c #181716",
"j 	c #181816",
"k 	c #171716",
"l 	c #161514",
"m 	c #151514",
"n 	c #141413",
"o 	c #161615",
"p 	c #1D1E1D",
"q 	c #181815",
"r 	c #171712",
"s 	c #1C1D1C",
"t 	c #343939",
"u 	c #3A4041",
"v 	c #414B4C",
"w 	c #161717",
"x 	c #0B0C0C",
"y 	c #111212",
"z 	c #0C0D0D",
"A 	c #0C0E0E",
"B 	c #171818",
"C 	c #1C1E1D",
"D 	c #191A19",
"E 	c #1D1E1E",
"F 	c #1D1D1C",
"G 	c #202120",
"H 	c #353A3B",
"I 	c #373B3C",
"J 	c #2A2D2B",
"K 	c #21211C",
"L 	c #171714",
"M 	c #1E1F1E",
"N 	c #272924",
"O 	c #2B2E2A",
"P 	c #323635",
"Q 	c #414C4D",
"R 	c #424E50",
"S 	c #4C5C60",
"T 	c #4B5C60",
"U 	c #4E5E62",
"V 	c #4E5F63",
"W 	c #4E5F62",
"X 	c #475355",
"Y 	c #4D5C5F",
"Z 	c #465254",
"` 	c #444F51",
" .	c #455052",
"..	c #434E4F",
"+.	c #424B4D",
"@.	c #3C4243",
"#.	c #383D3E",
"$.	c #272929",
"%.	c #1B1C1B",
"&.	c #171614",
"*.	c #1F1E18",
"=.	c #27261F",
"-.	c #2C2F2D",
";.	c #353A3A",
">.	c #3C4445",
",.	c #363C3C",
"'.	c #373D3D",
").	c #373D3C",
"!.	c #363C3B",
"~.	c #333837",
"{.	c #2E3333",
"].	c #313535",
"^.	c #292D2C",
"/.	c #292C2B",
"(.	c #262828",
"_.	c #252626",
":.	c #1D1E18",
"<.	c #1C1B16",
"[.	c #1C1C16",
"}.	c #191814",
"|.	c #24231D",
"1.	c #2F312F",
"2.	c #343938",
"3.	c #373E3F",
"4.	c #313534",
"5.	c #333838",
"6.	c #2E3130",
"7.	c #2E3231",
"8.	c #2D302F",
"9.	c #2B2E2C",
"0.	c #272723",
"a.	c #2A2C2A",
"b.	c #25241F",
"c.	c #1E1E18",
"d.	c #24231C",
"e.	c #201F18",
"f.	c #1F1F18",
"g.	c #201F19",
"h.	c #24231E",
"i.	c #313533",
"j.	c #383E3F",
"k.	c #41484A",
"l.	c #434A4C",
"m.	c #41494A",
"n.	c #3B4243",
"o.	c #3F4647",
"p.	c #3A4142",
"q.	c #373E3E",
"r.	c #373D3E",
"s.	c #333737",
"t.	c #303330",
"u.	c #2E302D",
"v.	c #282721",
"w.	c #28261F",
"x.	c #25231C",
"y.	c #212019",
"z.	c #22211A",
"A.	c #1B1B15",
"B.	c #272620",
"C.	c #303332",
"D.	c #383F3F",
"E.	c #444B4D",
"F.	c #464D4F",
"G.	c #454C4E",
"H.	c #3E4546",
"I.	c #414849",
"J.	c #404749",
"K.	c #394042",
"L.	c #2C2C28",
"M.	c #2E2F2C",
"N.	c #25241D",
"O.	c #26241D",
"P.	c #1A1A14",
"Q.	c #262723",
"R.	c #292923",
"S.	c #323634",
"T.	c #3E4446",
"U.	c #42494B",
"V.	c #3D4446",
"W.	c #3C4344",
"X.	c #383F40",
"Y.	c #363C3D",
"Z.	c #2C2C27",
"`.	c #272721",
" +	c #23221C",
".+	c #1A1A19",
"++	c #2D2F2E",
"@+	c #3D4344",
"#+	c #414749",
"$+	c #424A4C",
"%+	c #404849",
"&+	c #474F51",
"*+	c #485052",
"=+	c #444C4F",
"-+	c #3F4648",
";+	c #424A4B",
">+	c #3B4344",
",+	c #3A4243",
"'+	c #363B3B",
")+	c #333736",
"!+	c #323736",
"~+	c #2C2E2C",
"{+	c #25241E",
"]+	c #191A18",
"^+	c #252622",
"/+	c #282925",
"(+	c #495456",
"_+	c #4F5C5F",
":+	c #55676B",
"<+	c #596B6F",
"[+	c #57696D",
"}+	c #515F61",
"|+	c #5A6868",
"1+	c #4D5A5D",
"2+	c #4D595C",
"3+	c #4B575A",
"4+	c #4A5759",
"5+	c #485355",
"6+	c #465153",
"7+	c #202221",
"8+	c #1A1B1A",
"9+	c #161614",
"0+	c #201E19",
"a+	c #2D302D",
"b+	c #343838",
"c+	c #343A39",
"d+	c #3D392F",
"e+	c #64471D",
"f+	c #3E3A2E",
"g+	c #2A2E2D",
"h+	c #2F3332",
"i+	c #292C2C",
"j+	c #272A29",
"k+	c #252726",
"l+	c #222524",
"m+	c #242524",
"n+	c #1C1C17",
"o+	c #191914",
"p+	c #2F322F",
"q+	c #403D32",
"r+	c #67420D",
"s+	c #805401",
"t+	c #71510D",
"u+	c #403E31",
"v+	c #2F3231",
"w+	c #2D3130",
"x+	c #2C2E2D",
"y+	c #282824",
"z+	c #2B2D2B",
"A+	c #262520",
"B+	c #25231E",
"C+	c #4F4F42",
"D+	c #7F601B",
"E+	c #966911",
"F+	c #956B11",
"G+	c #986D11",
"H+	c #7E5F19",
"I+	c #454436",
"J+	c #303331",
"K+	c #25241C",
"L+	c #3C4345",
"M+	c #525145",
"N+	c #82631D",
"O+	c #9C7113",
"P+	c #956C15",
"Q+	c #5F4714",
"R+	c #946C15",
"S+	c #9B7012",
"T+	c #454437",
"U+	c #353B3C",
"V+	c #2A2924",
"W+	c #4A493B",
"X+	c #81611B",
"Y+	c #9B6F12",
"Z+	c #A07315",
"`+	c #926A15",
" @	c #503D13",
".@	c #916914",
"+@	c #986D0F",
"@@	c #996E11",
"#@	c #7D5E18",
"$@	c #444234",
"%@	c #2E312E",
"&@	c #282822",
"*@	c #23231C",
"=@	c #26241E",
"-@	c #191918",
";@	c #3D4343",
">@	c #414748",
",@	c #454841",
"'@	c #7A5F1F",
")@	c #9A6F13",
"!@	c #A07516",
"~@	c #956D17",
"{@	c #5A4416",
"]@	c #9E7315",
"^@	c #976C0F",
"/@	c #92680E",
"(@	c #715618",
"_@	c #40423B",
":@	c #242520",
"<@	c #4A5556",
"[@	c #60604B",
"}@	c #906D1F",
"|@	c #A57C22",
"1@	c #A88026",
"2@	c #A68026",
"3@	c #957527",
"4@	c #A88023",
"5@	c #9D7116",
"6@	c #967629",
"7@	c #5E5F4A",
"8@	c #4B5758",
"9@	c #465052",
"0@	c #404748",
"a@	c #1F2120",
"b@	c #1A1B19",
"c@	c #161513",
"d@	c #2D302E",
"e@	c #333735",
"f@	c #433925",
"g@	c #734A0F",
"h@	c #815108",
"i@	c #805909",
"j@	c #4D3C13",
"k@	c #825C0A",
"l@	c #8A5E07",
"m@	c #72490C",
"n@	c #433A26",
"o@	c #292B2A",
"p@	c #212322",
"q@	c #232423",
"r@	c #1E1F1D",
"s@	c #1D1D17",
"t@	c #373C3D",
"u@	c #474232",
"v@	c #77530B",
"w@	c #855B03",
"x@	c #815C0B",
"y@	c #8B6009",
"z@	c #6F460A",
"A@	c #403829",
"B@	c #2E3131",
"C@	c #282924",
"D@	c #2B2E2B",
"E@	c #262621",
"F@	c #211F19",
"G@	c #313433",
"H@	c #444B4C",
"I@	c #56523F",
"J@	c #8B681A",
"K@	c #9C7013",
"L@	c #4B4535",
"M@	c #282821",
"N@	c #212119",
"O@	c #22211B",
"P@	c #514D38",
"Q@	c #7C5E1B",
"R@	c #514C38",
"S@	c #292822",
"T@	c #454C4F",
"U@	c #444A4B",
"V@	c #45473E",
"W@	c #414848",
"X@	c #363D3D",
"Y@	c #2F312E",
"Z@	c #282823",
"`@	c #181918",
" #	c #404647",
".#	c #434B4D",
"+#	c #41494B",
"@#	c #485053",
"##	c #495254",
"$#	c #454E51",
"%#	c #3F4749",
"&#	c #394142",
"*#	c #333939",
"=#	c #161613",
"-#	c #191917",
";#	c #24251F",
">#	c #272823",
",#	c #495557",
"'#	c #4E5C5E",
")#	c #586B6F",
"!#	c #57686C",
"~#	c #505E60",
"{#	c #55666A",
"]#	c #4D5A5C",
"^#	c #4C595B",
"/#	c #4A5659",
"(#	c #4B5759",
"_#	c #4A5658",
":#	c #495658",
"<#	c #3A3F40",
"[#	c #2E312F",
"}#	c #303433",
"|#	c #292B2B",
"1#	c #272A2A",
"2#	c #242525",
"3#	c #222322",
"4#	c #1D1E1C",
"5#	c #1D1D16",
"6#	c #1A1914",
"7#	c #2F3230",
"8#	c #2F3333",
"9#	c #303333",
"0#	c #292925",
"a#	c #272621",
"b#	c #202019",
"c#	c #42494A",
"d#	c #404648",
"e#	c #3A4143",
"f#	c #21211A",
"g#	c #1C1C15",
"h#	c #262623",
"i#	c #2A2A24",
"j#	c #333938",
"k#	c #23231D",
"l#	c #181817",
"m#	c #3F4748",
"n#	c #444C4E",
"o#	c #414A4C",
"p#	c #485154",
"q#	c #4A5255",
"r#	c #464F51",
"s#	c #444C4D",
"t#	c #3D4546",
"u#	c #3B4345",
"v#	c #3A4242",
"w#	c #313636",
"x#	c #131413",
"y#	c #181919",
"z#	c #1F1F1F",
"A#	c #465152",
"B#	c #576A6E",
"C#	c #56686B",
"D#	c #4F5D5F",
"E#	c #556569",
"F#	c #4C595C",
"G#	c #4C585A",
"H#	c #495558",
"I#	c #475254",
"J#	c #454F51",
"K#	c #393E3F",
"L#	c #161716",
"M#	c #151615",
"N#	c #121210",
"O#	c #1B1B1A",
"P#	c #2F3331",
"Q#	c #2E302F",
"R#	c #272928",
"S#	c #2C2F2E",
"T#	c #1E2020",
"U#	c #212221",
"V#	c #121312",
"        . + @ # $ % % $ # & * = - - ; > , ' ) !         ",
"  ~ { ] ^ / / ( _ : _ < : / [ } | 1 2 3 4 5 6 7 8 9 0   ",
"a . b c d e f g f g h i j k l k l m m m n m o d ~ p q r ",
"s t u v 7 w x y z y A B C D E p p p p F p s G H I J K L ",
"  M N O P Q R S T U T V W X Y Z `  ...' +.@.#.$.G %.&.  ",
"  *.=.-.;.>.;.,.'.).'.).!.~.{.].c ^./.(.5 _.G :.<.[.}.  ",
"  |.1.P 2.3.7 _ _ _ _ t 4.5.6.7.8.9.0.a.b.|.c.d.e.f.g.  ",
"  h.i.,.j.k.l.l.l.l.m.n.o.p.q.r.,.s.2.P t.u.v.w.x.y.z.  ",
"A.B.C.5.D.' E.F.F.G.H.I.H.J.K.3.t _ t _ i.L.M.v.z.N.O.P.",
"Q.R.S.r.p.J.T.E.F.F.U.V.I.W.X.X.Y.t _ ~.4.1.Z.u.`. +O.f.",
".+++@+#+#+> $+%+&+*+&+=+-+;+>+,+,+X.'+'.2.)+i.t !+~+{+L ",
"  ]+^+/+P (+_+:+<+[+}+|+1+2+3+3+4+4+5+$+6+#+u 7+%.8+9+  ",
"  0+B.a+H >+b+c+;.c+d+e+f+4.g+h+i+2 j+k+l+m+a n+[.[.o+  ",
"  |.p+P 2.j.Y.7 7 q+r+s+t+u+7.v+w+x+y+z+A+B+*.d.e.f.g.  ",
"  h.i.,.D.k.E.E.C+D+E+F+G+H+I+r.,.s.2.P J+u.v.w.K+y.z.  ",
"<.B.C.5.D.L+E.M+N+O+P+Q+R+S+H+T+t U+t _ i.L.M.v.z.N.O.A.",
"Q.V+P j.p.#+W+X+Y+Z+`+ @.@+@@@#@$@2._ ~.4.1.Z.%@&@*@=@f.",
"-@-.;@>@J.,@'@)@@@!@~@{@~@]@^@/@(@_@,.r.c+)+S.t !+~+{+9+",
"  -@:@N 4.<@[@}@|@1@2@3@2@4@5@6@7@8@5+$+9@0@u a@%.b@c@  ",
"  g.`.d@_ ,+e@f@g@h@i@j@k@l@m@n@o@j+(.6 p@q@r@s@[.[.o+  ",
"  |.p+P 2.D.r.t@u@v@w@x@y@z@A@C.B@-.C@D@E@{+f.d.e.f.F@  ",
"  h.G@,.X.k.E.E.H@I@J@K@J@L@r.r.,.~.t P J+u.M@w.N.N@O@  ",
"[.B.C.5.j.L+E.F.F.G.P@Q@R@I.K.3.t _ t _ i.L.M.S@z.N.O.A.",
"Q.V+e@j.n.J.V.l.F.T@U@V@W@W.X.X.X@2._ ~.4.p+Z.Y@Z@*@=@f.",
"`@-.;@ #0@-+.#+#@###*+$#%#.#>.>+>+&#'.j.;.~.P *#/ ~+h.=#",
"  -#;#>#4.,#'#:+)#!#~#{#]#^#/#(#_#:#5+U.9@0@<#. 8+]+h   ",
"  g.v.[#_ p.!+!+~.!+4.!+}#h+|#6.1#(.k+2#7+3#4#s@[.5#6#  ",
"  |.7#P 2.X.r.'.'.r.r._ )+( 8#9#v+d@0#~+a#b.g.x.b#f.F@  ",
"  h.G@,.X.k.E.E.E.E.c#W.d#e#3.q.,.~.c+!+C.u.S@w.N.f#O@  ",
"s@B.C.5.j.L+E.F.F.G.H.I.V.J.K.3.t _ t _ i.Z.M.S@z.N.O.g#",
"h#i#)+X.n.J.V.l.F.F.l.' I.W.X.X.X@j#_ ~.4.7#Z.p+R.k#=@f.",
"l#x+@. #0@m#n#o#p#q#@#r#%+s#t#u#u#v#'.D.'+b+)+8 w#~+h.h ",
"  x#y#z#8.A#1+{#B#C#D#E#F#G#:#_#H#,#I#m.J#o.K#E L#M#N#  ",
"        O#k+6.4.4.4.h+i.P#Q#R#S#3 5 6 3#T#U#%.V#        "};
